<?xml version="1.0" encoding="UTF-8" standalone="no"?>
<!DOCTYPE svg PUBLIC "-//W3C//DTD SVG 1.1//EN" "http://www.w3.org/Graphics/SVG/1.1/DTD/svg11.dtd">
<svg width="100%" height="100%" viewBox="0 0 1024 1024" version="1.1" xmlns="http://www.w3.org/2000/svg" xmlns:xlink="http://www.w3.org/1999/xlink" xml:space="preserve" xmlns:serif="http://www.serif.com/" style="fill-rule:evenodd;clip-rule:evenodd;stroke-linecap:round;stroke-linejoin:round;stroke-miterlimit:10;">
    <g transform="matrix(0.5,0,0,0.5,0.005,-0.005)">
        <path d="M395.05,191.447C497.253,189.957 599.626,191.057 701.845,191.052L1262.97,191.039L1535.31,191.026L1615.58,190.998C1639.19,191.004 1662.74,190.557 1686.17,194.023C1727.61,200.151 1766.9,217.589 1797.75,246.175C1840.92,286.175 1860.52,335.066 1862.63,393.209C1863.79,425.184 1862.84,457.517 1862.84,489.527L1862.83,669.073L1862.85,1215.24L1862.85,1518.7L1862.84,1606.11C1862.83,1630.74 1863.41,1655.8 1859.95,1680.25C1854.1,1721.67 1837.64,1759.51 1808.85,1790.17C1767.77,1833.93 1712.65,1854.45 1653.55,1856.46C1625.08,1857.27 1596.36,1856.1 1567.87,1856.06L1385.19,1856.02L811.619,1856.01L511.788,1856.02L425.022,1856.08C403.892,1856.1 382.336,1857.02 361.365,1854.11C320.007,1848.51 281.311,1830.53 250.369,1802.52C207.343,1762.82 187.173,1709.07 185.119,1651.41C184.002,1620.07 184.966,1588.36 184.969,1556.98L184.981,1376.36L184.977,827.939L184.966,525.098L184.98,437.631C184.99,413.309 184.294,388.625 187.672,364.48C193.402,323.528 210.091,287.117 238.446,256.908C281.461,211.078 333.578,193.647 395.05,191.447Z" style="fill:rgb(34,28,27);fill-rule:nonzero;"/>
    </g>
    <g transform="matrix(0.5,0,0,0.5,-0.005,0)">
        <path d="M395.051,269.416C396.621,269.244 396.142,269.265 397.593,269.215C429.636,268.119 461.972,268.997 494.045,269.062C554.27,268.946 614.496,269.208 674.718,269.847L1112.84,269.982L1479.65,269.957L1593.92,269.912C1618.12,269.905 1643.13,268.615 1667.17,271.649C1695.71,275.252 1722.87,288.876 1743.7,308.512C1773.07,336.19 1785.89,372.212 1786.85,411.97C1787.18,425.624 1786.27,439.346 1786.01,453.005L1785.1,533.212L1785.44,801.632C1786.24,894.169 1786.48,986.71 1786.18,1079.25C1786.32,1133.42 1787.68,1187.82 1785.59,1241.96C1785.37,1247.59 1785.27,1256.67 1781.03,1260.75C1776.48,1265.13 1768.78,1266.69 1762.73,1267.53C1747.5,1269.65 1731.19,1268.69 1715.84,1268.56L1652.5,1268.19L797.182,1268.49L501.406,1267.27C453.225,1267.76 405.04,1267.8 356.857,1267.38C325.258,1267.28 293.633,1267.74 262.091,1265.57C261.467,1209.7 262.899,1153.63 262.925,1097.73L262.107,699.375C261.286,625.077 261.139,550.774 261.667,476.474C261.893,448.118 259.572,416.262 262.909,388.282C265.943,362.848 276.194,337.532 292.662,317.831C318.484,286.942 355.784,272.755 395.051,269.416Z" style="fill:rgb(214,56,56);fill-rule:nonzero;"/>
    </g>
    <g transform="matrix(0.5,0,0,0.5,0,0)">
        <path d="M1153.39,323.207L1348.59,324.581C1397.17,324.6 1446.46,322.513 1494.95,325.956C1495.14,342.31 1494.98,358.685 1494.99,375.041C1509.99,375.05 1524.99,374.948 1539.99,374.736C1539.36,415.394 1540.68,456.209 1540.94,496.877L1494.21,497.137C1494.08,516.999 1493.57,536.857 1492.68,556.7C1476.28,557.431 1459.67,556.938 1443.25,556.958C1443.35,578.14 1444.08,600.236 1442.03,621.303C1426.64,622.534 1410.98,622.013 1395.55,621.963C1395.84,642.284 1395.01,662.708 1394.75,683.037C1378.3,684.167 1361.63,683.46 1345.14,683.249C1347.85,703.647 1345.76,725.863 1344.45,746.369C1328.68,747.188 1312.75,746.403 1296.97,745.991C1297.18,766.272 1297.11,786.556 1296.75,806.835C1281.09,807.624 1265.32,807.195 1249.64,807.092C1248.45,827.515 1249.79,848.052 1248.29,868.487C1232.83,869.106 1217.22,868.624 1201.74,868.553C1202.15,888.68 1201.24,908.815 1200.83,928.939L1155.29,929.24C1155.31,948.941 1155.19,968.642 1154.93,988.341C1139.88,989.487 1124.36,988.819 1109.25,988.886C1109.21,1008.99 1109.44,1029.03 1108.93,1049.14C1093.61,1049.46 1078.28,1049.69 1062.96,1049.82C1063.01,1069.85 1062.85,1089.88 1062.48,1109.9C1047.3,1110.6 1032.04,1110.68 1016.84,1111.03C1016.95,1130.98 1017.28,1151.02 1016.45,1170.95C1001.75,1171.02 986.269,1169.99 971.69,1171.59C970.201,1191.45 972.431,1212.19 969.6,1231.83C967.515,1233.76 966.522,1233.35 963.751,1233.48C920.27,1231.08 876.16,1234.76 832.597,1234.89C762.626,1235.11 691.948,1232.53 622.124,1236.84C621.195,1225.6 621.151,1214.28 620.905,1203.01C605.622,1202.88 590.346,1203.64 575.067,1203.4C576.066,1190.64 577.113,1177.87 577.365,1165.07C577.675,1149.39 577.089,1133.7 578.136,1118.05C607.61,1078.74 635.571,1038.49 664.304,998.659L845.415,749.267C924.032,643.973 1001.11,537.543 1076.64,430.009C1102.02,394.307 1128.92,359.539 1153.39,323.207Z" style="fill:rgb(34,28,27);fill-rule:nonzero;"/>
    </g>
    <g transform="matrix(0.5,0,0,0.5,0,-0.005)">
        <path d="M1221.99,371.565C1238.02,370.469 1254.32,370.806 1270.39,370.723C1322.97,370.448 1375.41,373.161 1427.98,372.95L1428.21,430.521C1412.08,431.299 1395.94,431.879 1379.79,432.262C1378.4,452.095 1378.32,472.262 1378.1,492.148C1362.65,492.778 1347.05,493.213 1331.59,492.548C1334.03,512.663 1334.35,533.077 1335.31,553.312C1320.18,554.178 1305.04,554.765 1289.89,555.073C1290.62,575.402 1289.22,595.677 1288.9,616.001C1272.47,616.551 1256.16,617.061 1239.71,616.858C1241.16,637.363 1241.77,657.969 1242.64,678.508C1227.84,679.002 1213.03,679.218 1198.21,679.153C1197.71,699.16 1197.39,719.171 1197.26,739.183C1181.53,739.996 1165.7,741.204 1149.96,740.814C1153.24,758.97 1151.24,780.169 1151.12,798.7C1135.71,799.067 1120.18,799.226 1104.79,798.149C1105.68,818.12 1105.75,837.938 1105.43,857.927C1090.71,858.094 1075.99,858.382 1061.28,858.789C1060.87,878.65 1061.47,898.537 1061.15,918.41C1044.89,919.353 1028.29,918.864 1012.02,918.304C1011.71,938.661 1011.8,958.688 1012.97,979.021C997.364,980.096 981.717,980.511 966.073,980.264C965.619,999.839 965.762,1019.42 965.261,1039.01L924.166,1039.6C924.331,1059.38 923.173,1079.27 922.917,1099.07C908.472,1099.1 894.017,1099.28 879.583,1098.65C880.967,1120.35 879.561,1142.23 879.367,1163.95C863.957,1163.82 848.506,1164.26 833.095,1164.46C762.82,1164.82 692.544,1164.6 622.272,1163.81C620.75,1145.05 620.906,1126.31 620.932,1107.5C637.16,1107.04 653.401,1107.21 669.615,1108.04L673.743,1049.1C687.068,1048.82 703.372,1051.08 716.173,1047.95C721.5,1042.11 718.947,998.819 718.852,988.707C733.466,987.084 748.729,987.359 763.45,986.83C766.29,966.702 765.144,945.54 765.232,925.245C779.486,925.137 793.647,923.709 807.925,923.834C808.815,903.697 809.513,883.551 810.019,863.4C824.857,860.413 841.401,861.268 856.491,860.99C858.082,840.383 860.06,819.637 863.141,799.197C876.394,798.827 889.646,798.337 902.904,798.671C906.062,779.972 905.089,759.951 905.606,741.006C919.687,739.195 934.548,740.092 948.748,740.158C951.337,720.292 950.866,699.332 951.109,679.292C964.339,677.571 977.768,677.908 991.085,677.848C993.876,658.237 992.368,636.951 992.269,617.108C1006.39,617.007 1020.52,617.002 1034.64,617.091C1035.6,596.88 1033.49,576.252 1035.71,556.148C1048.98,554.876 1062.55,554.935 1075.89,554.558C1078.66,535.064 1077.14,513.754 1077.25,494.041C1091.66,492.566 1106.27,492.978 1120.73,492.995C1121.35,474.256 1123.44,454.597 1126.47,436.103C1140.22,435.864 1153.95,435.623 1167.71,435.998C1168.72,415.319 1167.27,393.984 1166.94,373.239C1185.3,373.369 1203.66,372.811 1221.99,371.565Z" style="fill:rgb(74,145,248);fill-rule:nonzero;"/>
    </g>
    <g transform="matrix(0.5,0,0,0.5,0,0.005)">
        <path d="M1593.07,1074.17L1667.95,1073.71C1668.02,1094.5 1670.34,1131.81 1666.7,1151C1642.06,1150.97 1617.24,1151.98 1592.63,1150.88C1590.71,1128.27 1590.76,1096.62 1593.07,1074.17Z" style="fill:rgb(208,26,24);fill-rule:nonzero;"/>
    </g>
    <g transform="matrix(0.5,0,0,0.5,0.005,0.005)">
        <path d="M508.621,784.576L520.708,784.051C519.964,809.987 520.198,835.908 519.772,861.845C498.529,862.999 477.028,862.687 455.75,862.725L446.427,862.508C445.507,836.896 445.224,810.089 447.175,784.524C467.628,784.602 488.186,785.434 508.621,784.576Z" style="fill:rgb(208,26,24);fill-rule:nonzero;"/>
    </g>
    <g transform="matrix(0.5,0,0,0.5,0.005,0)">
        <path d="M1270.09,1097.03C1294.89,1096.3 1319.92,1097 1344.74,1097.08C1343.56,1114.13 1343.72,1131.48 1343.82,1148.58C1343.85,1154.13 1345.49,1164.39 1344.16,1169.52C1343.99,1170.2 1343.3,1170.61 1342.88,1171.16C1319.48,1173.71 1292.06,1172.35 1268.35,1171.9C1267.66,1157.66 1266.6,1108.66 1270.09,1097.03Z" style="fill:rgb(208,26,24);fill-rule:nonzero;"/>
    </g>
    <g transform="matrix(0.5,0,0,0.5,-0.005,0)">
        <path d="M1413.67,875.969C1438.83,874.662 1464.7,875.943 1489.95,875.974C1489.22,898.143 1490.92,927.787 1488.75,948.662C1464.13,950.471 1438.57,949.571 1413.83,949.865C1413.14,925.239 1413.08,900.598 1413.67,875.969Z" style="fill:rgb(208,26,24);fill-rule:nonzero;"/>
    </g>
    <g transform="matrix(0.5,0,0,0.5,0,0.005)">
        <path d="M825.277,379.409C849.674,378.547 874.24,379.023 898.647,379.357C898.961,393.527 899.308,442.673 896.466,453.878C884.331,454.476 872.117,454.13 859.965,454.28C847.965,454.429 835.793,455.179 823.816,454.394C822.103,430.126 823.424,403.681 825.277,379.409Z" style="fill:rgb(208,26,24);fill-rule:nonzero;"/>
    </g>
    <g transform="matrix(0.5,0,0,0.5,1.13687e-13,0.005)">
        <path d="M1589.09,632.516C1610.05,632.35 1631.02,632.035 1651.97,631.574C1652.42,656.065 1652.44,680.563 1652.05,705.055L1639.23,705.176C1618.45,704.935 1597.9,705.157 1577.15,706.489C1575.59,682.203 1576.97,656.995 1576.9,632.594L1589.09,632.516Z" style="fill:rgb(208,26,24);fill-rule:nonzero;"/>
    </g>
    <g transform="matrix(0.5,0,0,0.5,2.84217e-14,2.84217e-14)">
        <path d="M514.183,454.532L532.184,454.217C531.842,479.074 532.057,503.968 531.996,528.83C513.806,529.471 495.459,529.051 477.25,529.12L458.077,528.874C457.289,504.128 457.896,479.211 458.411,454.46C476.996,455.064 495.596,455.088 514.183,454.532Z" style="fill:rgb(208,26,24);fill-rule:nonzero;"/>
    </g>
    <g transform="matrix(0.5,0,0,0.5,-2.84217e-14,0)">
        <path d="M403.594,1079.37C423.717,1078.44 444.554,1079.63 464.747,1079.9C465.894,1103.94 466.185,1130.29 464.706,1154.31C462.232,1155.82 460.039,1155.65 457.209,1155.85C435.862,1156.03 414.514,1155.71 393.181,1154.89C392.539,1138.81 391.024,1094.94 395.126,1081.3C397.825,1079.6 400.482,1079.7 403.594,1079.37Z" style="fill:rgb(208,26,24);fill-rule:nonzero;"/>
    </g>
    <g transform="matrix(0.5,0,0,0.5,0.005,0.005)">
        <path d="M682.634,600.439C704.706,599.048 727.471,599.758 749.579,600.088C748.956,611.086 750.479,670.386 748.038,675.462C747.419,676.75 746.51,676.548 745.249,676.86C723.287,677.908 701.198,677.773 679.212,677.896C679.174,676.765 679.147,675.634 679.13,674.503C679.059,662.448 679.868,650.356 679.928,638.287C679.98,627.646 678.832,615.183 680.484,604.741C680.831,602.547 681.15,601.958 682.634,600.439Z" style="fill:rgb(208,26,24);fill-rule:nonzero;"/>
    </g>
    <g transform="matrix(0.5,0,0,0.5,0.005,0.005)">
        <path d="M272.472,1691.46C298.496,1690.29 324.937,1691.11 350.998,1691.1L494.392,1691.07L937.873,1691.03L1443.72,1690.99C1555.84,1690.85 1668.48,1689.02 1780.53,1692.57C1770.28,1712.84 1759.27,1728.6 1742.37,1743.99C1726.71,1757.04 1709.14,1767.08 1689.5,1772.72C1653.03,1783.18 1603.12,1778.45 1564.87,1778.15L1451.17,1777.9L1003.46,1777.98L587.088,1777.91L455.533,1777.92C431.015,1777.94 405.905,1779.04 381.454,1777.57C362.61,1776.44 343.511,1768.36 327.218,1759.27C305.373,1747.08 278.178,1716.89 271.373,1692.61L272.472,1691.46Z" style="fill:rgb(213,56,56);fill-rule:nonzero;"/>
    </g>
    <g transform="matrix(0.5,0,0,0.5,-0.005,0)">
        <path d="M293.9,1335.91C333.715,1336.17 373.53,1336.16 413.345,1335.89C424.817,1347.34 435.728,1360.41 446.112,1372.87C446.062,1400.4 445.305,1428.28 446.704,1455.76L419.43,1483.03C428.78,1490.62 437.981,1498.4 447.028,1506.35C445.582,1536.42 446.172,1566.76 446.017,1596.87L441.076,1602.68C430.889,1614.08 421.003,1625.74 410.731,1637.07C371.604,1637.81 332.37,1636.91 293.232,1636.74L293.9,1335.91Z" style="fill:rgb(253,243,221);fill-rule:nonzero;"/>
    </g>
    <g transform="matrix(0.5,0,0,0.5,0,0)">
        <path d="M348.161,1504.85C358.321,1504.43 368.461,1504.68 378.623,1504.87C382.675,1509.02 386.852,1512.95 391.139,1516.84C390.267,1538.99 390.679,1561.14 389.881,1583.27C375.633,1583.09 361.35,1583.6 347.104,1583.9C345.313,1570.11 347.336,1555.87 347.938,1542.03C348.476,1529.66 348.241,1517.23 348.161,1504.85Z" style="fill:rgb(34,28,27);fill-rule:nonzero;"/>
    </g>
    <g transform="matrix(0.5,0,0,0.5,-0.005,-0.005)">
        <path d="M348.106,1387.36C362.221,1387.24 376.337,1387.22 390.453,1387.29C390.001,1405.94 390.894,1424.65 389.881,1443.29C388.132,1445.91 386.153,1448.41 384.256,1450.93C376.788,1457.54 358.759,1455.14 348.988,1455.89C349.274,1433.04 347.569,1410.25 348.106,1387.36Z" style="fill:rgb(34,28,27);fill-rule:nonzero;"/>
    </g>
    <g transform="matrix(0.5,0,0,0.5,-1.13687e-13,0)">
        <path d="M1293.38,1334.48C1321.62,1334.56 1349.95,1333.76 1378.17,1334.29C1385.39,1371.47 1389.77,1409.43 1395.02,1446.95L1422.3,1636.72C1403.26,1637.49 1384.21,1638.48 1365.16,1637.67C1362.21,1626.33 1361.16,1614.12 1359.63,1602.5C1358.81,1596.69 1357.96,1590.89 1357.07,1585.09C1341.85,1584.37 1326.37,1584.89 1311.12,1584.85C1309.59,1602.52 1306.64,1619.93 1304.82,1637.56C1286.27,1637.29 1267.6,1638.11 1249.03,1638.37C1262.1,1559.93 1271.78,1480.85 1283.39,1402.18C1286.71,1379.63 1289.38,1356.92 1293.38,1334.48Z" style="fill:rgb(253,243,221);fill-rule:nonzero;"/>
    </g>
    <g transform="matrix(0.5,0,0,0.5,-0.005,0)">
        <path d="M1335.39,1411.65C1335.83,1412.26 1336.43,1412.79 1336.72,1413.5C1338.43,1417.72 1339.94,1443.78 1340.84,1451.02C1344.13,1477.42 1350.7,1503.4 1352.33,1530.02L1337.21,1530.07L1317.76,1530.06C1325.17,1490.98 1326.59,1450.38 1335.39,1411.65Z" style="fill:rgb(34,28,27);fill-rule:nonzero;"/>
    </g>
    <g transform="matrix(0.5,0,0,0.5,0.005,0)">
        <path d="M1705.08,1334.68C1723.37,1334.53 1741.69,1334.81 1759.98,1334.88L1760.03,1541.46L1760.02,1602.63C1760.02,1613.04 1760.9,1624.14 1759.58,1634.44C1757.32,1636.57 1755.28,1635.94 1752.25,1636.03C1736.29,1636.31 1720.32,1636.29 1704.36,1635.97C1702.03,1594.47 1704.98,1552.32 1705.05,1510.75C1690.79,1510.83 1676.47,1510.69 1662.23,1511.65C1661.08,1553.15 1662.72,1594.56 1660.64,1636.09L1606.77,1636.96C1605.17,1591.4 1607.43,1545.43 1607.58,1499.82C1607.75,1444.91 1606.22,1389.88 1607.54,1334.98C1626.03,1335.25 1644.53,1335.28 1663.02,1335.07L1663,1453.82C1677.02,1452.99 1691.09,1453.08 1705.13,1453.01L1705.08,1334.68Z" style="fill:rgb(253,243,221);fill-rule:nonzero;"/>
    </g>
    <g transform="matrix(0.5,0,0,0.5,0.005,0.005)">
        <path d="M736.242,1335.5C745.399,1335.08 754.601,1335.12 763.767,1334.99L764.438,1596.85C752.18,1609.71 740.629,1623.21 728.988,1636.62C701.935,1637.17 674.72,1637.51 647.668,1636.94C636.55,1624.19 625.25,1611.61 613.771,1599.19C613.338,1578.09 615.26,1556.79 615.568,1535.66C616.132,1496.85 615.705,1457.97 615.678,1419.14C615.848,1391.37 615.808,1363.59 615.56,1335.82L668.872,1335.66C668.068,1418.12 667.743,1500.59 667.897,1583.06C681.847,1583.02 695.795,1582.82 709.741,1582.47C712.256,1500.39 709.151,1418.13 712.149,1336.02C720.179,1335.94 728.213,1335.69 736.242,1335.5Z" style="fill:rgb(253,243,221);fill-rule:nonzero;"/>
    </g>
    <g transform="matrix(0.5,0,0,0.5,0,0)">
        <path d="M969.683,1335.35C996.979,1334.67 1025.4,1332.87 1052.59,1334.63C1064.01,1347.05 1076.27,1360.34 1086.1,1374.03C1085.96,1390.44 1086.51,1407.69 1084.06,1423.95C1066.68,1424.84 1049.29,1425.29 1031.9,1425.28C1031.14,1412.84 1031.76,1400.31 1032.04,1387.86L991.864,1388.01C991.779,1404.57 991.845,1421.14 992.062,1437.7C1022.15,1459.54 1054.94,1477.57 1084.89,1499.53C1086.83,1532.03 1085.17,1564.16 1085.86,1596.62C1074.85,1609.69 1064.09,1623.39 1052.47,1635.89C1042.14,1636.99 975.541,1639.78 967.971,1636.62C961.403,1628.79 954.736,1621.05 947.97,1613.39C943.948,1608.85 939.625,1604.37 935.931,1599.58C937.75,1579.76 936.165,1559.81 938.144,1540.03C955.848,1539.96 973.698,1539.4 991.385,1540.01C992.535,1554.2 991.895,1568.58 991.459,1582.8L1028.86,1581.76C1031,1565.38 1030.96,1548.51 1030.99,1532C1000.96,1510.62 968.006,1493.29 937.94,1472C936.477,1458.94 937.024,1445.51 937.04,1432.39L937.157,1371.37C948.013,1359.23 959.889,1348.48 969.683,1335.35Z" style="fill:rgb(253,243,221);fill-rule:nonzero;"/>
    </g>
    <g transform="matrix(0.5,0,0,0.5,-5.68434e-14,0.005)">
        <path d="M947.97,1613.39C953.957,1613.05 956.675,1615.86 960.943,1619.69C964.589,1622.95 967.661,1627 969.306,1631.63C969.152,1633.62 968.885,1634.84 967.971,1636.62C961.403,1628.79 954.736,1621.05 947.97,1613.39Z" style="fill:rgb(238,211,183);fill-rule:nonzero;"/>
    </g>
    <g transform="matrix(0.5,0,0,0.5,0,0)">
        <path d="M1525.09,1334.53C1533.45,1334.24 1541.78,1334.28 1550.13,1334.35C1561.88,1346.76 1573.65,1360.33 1584.1,1373.84C1583.95,1390.42 1583.22,1406.98 1581.91,1423.5C1564.3,1425.07 1546.55,1425.16 1528.89,1425.58C1527.38,1413.12 1528.36,1400.23 1528.96,1387.73L1490.33,1388C1489.59,1404.49 1489.97,1421.12 1489.93,1437.62L1548.92,1476.2C1560.13,1483.55 1572.71,1490.64 1582.76,1499.49C1583.12,1532.03 1583.22,1564.57 1583.05,1597.12C1572.22,1610.09 1561.68,1623.35 1550.33,1635.87C1529.65,1637.66 1508.76,1636.99 1488.01,1637.7C1482.15,1637.88 1476.26,1637.81 1470.39,1637.86C1459.24,1625.69 1448.53,1613.06 1437.66,1600.64C1436.02,1580.59 1437.03,1559.48 1437.34,1539.37C1455.03,1540 1472.88,1539.4 1490.58,1539.22C1491.22,1553.67 1490.71,1568.32 1490.64,1582.8L1527.89,1581.96L1528.8,1531.16C1498.97,1510.9 1467.3,1493.28 1438.04,1472.16C1436.9,1438.41 1436.57,1404.64 1437.05,1370.87C1447.87,1359.4 1458.41,1348.1 1467.5,1335.15L1525.09,1334.53Z" style="fill:rgb(253,243,221);fill-rule:nonzero;"/>
    </g>
    <g transform="matrix(0.5,0,0,0.5,0,0.005)">
        <path d="M897.584,1335.5L911.757,1335.36C912.029,1352.93 912.076,1370.5 911.899,1388.07C891.618,1390.37 869.821,1388.91 849.343,1388.89C848.279,1410.28 849.91,1432.34 850.081,1453.83L902.737,1453.94C902.278,1471.94 902.097,1489.94 902.192,1507.94C885.087,1509.86 867.205,1509.5 849.994,1510.11C850.2,1534.49 850.004,1558.88 849.407,1583.25C870.245,1583.06 891.085,1582.98 911.925,1583.01L911.939,1621.42L911.99,1636.5C894.964,1638.15 877.036,1637.01 859.909,1636.85C838.629,1636.65 817.322,1637 796.051,1636.42L796.04,1335.48C829.886,1335.99 863.738,1336 897.584,1335.5Z" style="fill:rgb(253,243,221);fill-rule:nonzero;"/>
    </g>
    <g transform="matrix(0.5,0,0,0.5,5.68434e-14,-0.005)">
        <path d="M477.177,1335.31C495.453,1334.9 513.96,1334.75 532.219,1335.57L532.325,1582.16C552.832,1581.9 573.342,1581.84 593.851,1581.99C594.111,1599.95 593.481,1618.1 592.367,1636.03C554.234,1637.71 515.165,1637.4 476.998,1636.21C475.668,1535.98 477.207,1435.56 477.177,1335.31Z" style="fill:rgb(253,243,221);fill-rule:nonzero;"/>
    </g>
    <g transform="matrix(0.5,0,0,0.5,0,0)">
        <path d="M1112.93,1335.57L1168.48,1336.13L1167.93,1506.13C1167.98,1531.44 1169.45,1556.94 1168.75,1582.2C1189.46,1581.93 1210.18,1581.87 1230.89,1582.04C1231.23,1599.61 1229.99,1617.31 1229.23,1634.87C1224.84,1638.58 1128.45,1636.46 1113.61,1636.22L1112.93,1335.57Z" style="fill:rgb(253,243,221);fill-rule:nonzero;"/>
    </g>
    <g transform="matrix(1,0,0,1,-610.5,-45.5)">
        <path d="M864.841,376.374L864.843,376.374" style="fill:none;fill-rule:nonzero;stroke:rgb(182,55,55);stroke-width:1px;"/>
    </g>
</svg>
